<svg width="87" height="117" viewBox="0 0 87 117" fill="none" xmlns="http://www.w3.org/2000/svg">
<g filter="url(#filter0_d_65_2)">
<path d="M55.0251 1.0329C53.5664 1.87571 53.2932 3.51621 53.2932 11.4342V20.8357L48.9704 25.1224L44.6466 29.4081H25.7362C7.20483 29.4081 6.7961 29.4522 5.40464 31.6157C4.30909 33.318 3.98844 37.7165 4.00032 50.8504C4.01516 66.2458 4.19627 68.056 5.89254 69.7377C7.59871 71.4292 9.42266 71.598 26.0212 71.598C43.7608 71.598 44.317 71.5372 45.8144 69.4169C47.0752 67.6341 47.3553 63.9184 47.3553 49.0117V30.7876L51.108 27.1543L54.8608 23.5211H63.7846C75.8069 23.5211 76.4235 23.0168 76.8916 12.8029C77.1737 6.652 76.8906 4.30114 75.6427 2.41339C74.1265 0.118451 73.5179 -0.0247991 65.3938 0.00267341C60.6434 0.0193532 55.9781 0.482464 55.0251 1.0329Z" fill="white"/>
<path d="M54.4907 49.2766C53.9276 49.9516 53.317 55.9485 53.1329 62.6037C52.9262 70.0809 52.9572 73.8054 51.1038 75.6586C49.1406 77.6215 45.0634 77.485 36.3503 77.485C26.2102 77.485 23.4412 77.7862 22.1892 79.0264C19.911 81.285 19.911 105.082 22.1892 107.341C23.7697 108.907 31.5722 109.174 68.1381 108.913C74.5041 108.867 78.1537 109.204 80.2409 107.565C83.3887 105.094 82.983 98.1278 82.983 78.576C82.983 56.4832 82.7435 52.0719 81.4421 50.2313C79.9922 48.1777 79.1866 48.0501 67.7086 48.0501C59.1599 48.0501 55.2092 48.4171 54.4907 49.2766Z" fill="white"/>
</g>
<path d="M59.8477 65.8049C59.4694 66.2479 59.0592 70.1835 58.9355 74.5512C58.7967 79.4583 58.8175 81.9026 57.5724 83.1188C56.2536 84.407 53.5145 84.3174 47.6611 84.3174C40.8491 84.3174 38.9889 84.5151 38.1479 85.329C36.6174 86.8113 36.6174 102.429 38.1479 103.911C39.2096 104.939 44.4512 105.114 69.0159 104.943C73.2926 104.913 75.7443 105.134 77.1464 104.058C79.2611 102.436 78.9886 97.8648 78.9886 85.0334C78.9886 70.5344 78.8277 67.6394 77.9534 66.4314C76.9794 65.0837 76.4382 65 68.7273 65C62.9844 65 60.3304 65.2408 59.8477 65.8049Z" fill="url(#paint0_linear_65_2)"/>
<defs>
<filter id="filter0_d_65_2" x="0" y="0" width="87" height="117" filterUnits="userSpaceOnUse" color-interpolation-filters="sRGB">
<feFlood flood-opacity="0" result="BackgroundImageFix"/>
<feColorMatrix in="SourceAlpha" type="matrix" values="0 0 0 0 0 0 0 0 0 0 0 0 0 0 0 0 0 0 127 0" result="hardAlpha"/>
<feOffset dy="4"/>
<feGaussianBlur stdDeviation="2"/>
<feComposite in2="hardAlpha" operator="out"/>
<feColorMatrix type="matrix" values="0 0 0 0 0 0 0 0 0 0 0 0 0 0 0 0 0 0 0.25 0"/>
<feBlend mode="normal" in2="BackgroundImageFix" result="effect1_dropShadow_65_2"/>
<feBlend mode="normal" in="SourceGraphic" in2="effect1_dropShadow_65_2" result="shape"/>
</filter>
<linearGradient id="paint0_linear_65_2" x1="58" y1="65" x2="58" y2="105" gradientUnits="userSpaceOnUse">
<stop stop-color="#006EBC"/>
<stop offset="1" stop-color="#1EB2CC"/>
</linearGradient>
</defs>
</svg>
