<svg width="510" height="206" viewBox="0 0 510 206" fill="none" xmlns="http://www.w3.org/2000/svg">
<path d="M87.7758 38.194C86.0954 39.1683 85.7808 41.0646 85.7808 50.2175V61.0853L80.8013 66.0405L75.8207 70.9946H54.0379C32.6916 70.9946 32.2208 71.0457 30.618 73.5466C29.356 75.5144 28.9867 80.5989 29.0004 95.7811C29.0175 113.578 29.2261 115.67 31.18 117.614C33.1454 119.57 35.2463 119.765 54.3662 119.765C74.8004 119.765 75.4411 119.694 77.1659 117.243C78.6183 115.183 78.9409 110.887 78.9409 93.6557V72.5893L83.2637 68.3894L87.5865 64.1895H97.8658C111.714 64.1895 112.425 63.6066 112.964 51.7997C113.289 44.6895 112.963 41.972 111.525 39.7898C109.779 37.1369 109.078 36.9713 99.7194 37.0031C94.2475 37.0224 88.8736 37.5577 87.7758 38.194Z" fill="#1EB2CC" data-index="0"></path>
<path d="M87.1602 93.9619C86.5115 94.7422 85.8081 101.674 85.5961 109.368C85.3581 118.011 85.3937 122.316 83.2588 124.459C80.9974 126.728 76.3008 126.57 66.2642 126.57C54.5839 126.57 51.3942 126.918 49.9522 128.352C47.3279 130.962 47.3279 158.471 49.9522 161.082C51.7727 162.892 60.7604 163.201 102.881 162.899C110.214 162.846 114.418 163.236 116.822 161.341C120.448 158.484 119.98 150.432 119.98 127.831C119.98 102.293 119.704 97.1932 118.205 95.0655C116.535 92.6916 115.607 92.5442 102.386 92.5442C92.5386 92.5442 87.9878 92.9684 87.1602 93.9619Z" fill="#006EBC" data-index="1"></path>
<path d="M93.1117 112.926C92.6793 113.435 92.2105 117.961 92.0692 122.984C91.9105 128.627 91.9343 131.438 90.5113 132.837C89.0041 134.318 85.8737 134.215 79.1841 134.215C71.399 134.215 69.273 134.442 68.3118 135.378C66.5627 137.083 66.5627 155.043 68.3118 156.748C69.5253 157.93 75.5157 158.131 103.59 157.934C108.477 157.899 111.279 158.154 112.882 156.917C115.298 155.052 114.987 149.795 114.987 135.038C114.987 118.365 114.803 115.035 113.804 113.646C112.691 112.096 112.072 112 103.26 112C96.6965 112 93.6633 112.277 93.1117 112.926Z" fill="white" data-index="2"></path>
<path d="M142.591 124H130.5L146.205 77.4545H161.182L176.886 124H164.795L153.864 89.1818H153.5L142.591 124ZM140.977 105.682H166.25V114.227H140.977V105.682ZM193.011 77.4545V124H181.898V77.4545H193.011ZM216.358 137.818C213.04 137.818 210.199 137.356 207.835 136.432C205.472 135.508 203.616 134.242 202.267 132.636C200.919 131.03 200.108 129.212 199.835 127.182L210.358 126.591C210.555 127.303 210.919 127.924 211.449 128.455C211.994 128.985 212.699 129.394 213.562 129.682C214.441 129.97 215.472 130.114 216.653 130.114C218.517 130.114 220.055 129.659 221.267 128.75C222.494 127.856 223.108 126.288 223.108 124.045V117.909H222.722C222.282 118.985 221.616 119.947 220.722 120.795C219.828 121.644 218.714 122.311 217.381 122.795C216.063 123.28 214.547 123.523 212.835 123.523C210.29 123.523 207.956 122.932 205.835 121.75C203.729 120.553 202.04 118.705 200.767 116.205C199.509 113.689 198.881 110.455 198.881 106.5C198.881 102.424 199.532 99.0682 200.835 96.4318C202.138 93.7803 203.843 91.8182 205.949 90.5455C208.07 89.2727 210.35 88.6364 212.79 88.6364C214.623 88.6364 216.191 88.9545 217.494 89.5909C218.813 90.2121 219.896 91.0152 220.744 92C221.593 92.9848 222.237 94.0076 222.676 95.0682H222.994V89.0909H234.062V124.136C234.062 127.091 233.32 129.583 231.835 131.614C230.35 133.644 228.275 135.182 225.608 136.227C222.941 137.288 219.858 137.818 216.358 137.818ZM216.699 115.432C218.047 115.432 219.199 115.076 220.153 114.364C221.108 113.652 221.843 112.629 222.358 111.295C222.873 109.962 223.131 108.364 223.131 106.5C223.131 104.606 222.873 102.977 222.358 101.614C221.858 100.235 221.123 99.1742 220.153 98.4318C219.199 97.6894 218.047 97.3182 216.699 97.3182C215.32 97.3182 214.153 97.697 213.199 98.4545C212.244 99.2121 211.517 100.28 211.017 101.659C210.532 103.023 210.29 104.636 210.29 106.5C210.29 108.364 210.54 109.962 211.04 111.295C211.54 112.629 212.259 113.652 213.199 114.364C214.153 115.076 215.32 115.432 216.699 115.432ZM257.443 124.659C253.777 124.659 250.625 123.909 247.989 122.409C245.367 120.894 243.345 118.788 241.92 116.091C240.511 113.379 239.807 110.235 239.807 106.659C239.807 103.068 240.511 99.9242 241.92 97.2273C243.345 94.5152 245.367 92.4091 247.989 90.9091C250.625 89.3939 253.777 88.6364 257.443 88.6364C261.11 88.6364 264.254 89.3939 266.875 90.9091C269.511 92.4091 271.534 94.5152 272.943 97.2273C274.367 99.9242 275.08 103.068 275.08 106.659C275.08 110.235 274.367 113.379 272.943 116.091C271.534 118.788 269.511 120.894 266.875 122.409C264.254 123.909 261.11 124.659 257.443 124.659ZM257.511 116.273C258.845 116.273 259.973 115.864 260.898 115.045C261.822 114.227 262.527 113.091 263.011 111.636C263.511 110.182 263.761 108.5 263.761 106.591C263.761 104.652 263.511 102.955 263.011 101.5C262.527 100.045 261.822 98.9091 260.898 98.0909C259.973 97.2727 258.845 96.8636 257.511 96.8636C256.133 96.8636 254.966 97.2727 254.011 98.0909C253.072 98.9091 252.352 100.045 251.852 101.5C251.367 102.955 251.125 104.652 251.125 106.591C251.125 108.5 251.367 110.182 251.852 111.636C252.352 113.091 253.072 114.227 254.011 115.045C254.966 115.864 256.133 116.273 257.511 116.273ZM280.773 124V89.0909H291.568V95.4545H291.932C292.568 93.1515 293.606 91.4394 295.045 90.3182C296.485 89.1818 298.159 88.6136 300.068 88.6136C300.583 88.6136 301.114 88.6515 301.659 88.7273C302.205 88.7879 302.712 88.8864 303.182 89.0227V98.6818C302.652 98.5 301.955 98.3561 301.091 98.25C300.242 98.1439 299.485 98.0909 298.818 98.0909C297.5 98.0909 296.311 98.3864 295.25 98.9773C294.205 99.553 293.379 100.364 292.773 101.409C292.182 102.439 291.886 103.652 291.886 105.045V124H280.773ZM332.869 91.4091C332.718 89.7424 332.044 88.447 330.847 87.5227C329.665 86.5833 327.975 86.1136 325.778 86.1136C324.324 86.1136 323.112 86.303 322.142 86.6818C321.172 87.0606 320.445 87.5833 319.96 88.25C319.475 88.9015 319.225 89.6515 319.21 90.5C319.18 91.197 319.316 91.8106 319.619 92.3409C319.938 92.8712 320.392 93.3409 320.983 93.75C321.589 94.1439 322.316 94.4924 323.165 94.7955C324.013 95.0985 324.968 95.3636 326.028 95.5909L330.028 96.5C332.331 97 334.362 97.6667 336.119 98.5C337.892 99.3333 339.377 100.326 340.574 101.477C341.786 102.629 342.703 103.955 343.324 105.455C343.945 106.955 344.263 108.636 344.278 110.5C344.263 113.439 343.521 115.962 342.051 118.068C340.581 120.174 338.468 121.788 335.71 122.909C332.968 124.03 329.657 124.591 325.778 124.591C321.884 124.591 318.491 124.008 315.597 122.841C312.703 121.674 310.453 119.902 308.847 117.523C307.241 115.144 306.415 112.136 306.369 108.5H317.142C317.233 110 317.634 111.25 318.347 112.25C319.059 113.25 320.036 114.008 321.278 114.523C322.536 115.038 323.991 115.295 325.642 115.295C327.157 115.295 328.445 115.091 329.506 114.682C330.581 114.273 331.407 113.705 331.983 112.977C332.559 112.25 332.854 111.417 332.869 110.477C332.854 109.598 332.581 108.848 332.051 108.227C331.521 107.591 330.703 107.045 329.597 106.591C328.506 106.121 327.112 105.689 325.415 105.295L320.551 104.159C316.521 103.235 313.347 101.742 311.028 99.6818C308.71 97.6061 307.559 94.803 307.574 91.2727C307.559 88.3939 308.331 85.8712 309.892 83.7045C311.453 81.5379 313.612 79.8485 316.369 78.6364C319.127 77.4242 322.271 76.8182 325.801 76.8182C329.407 76.8182 332.536 77.4318 335.188 78.6591C337.854 79.8712 339.922 81.5758 341.392 83.7727C342.862 85.9697 343.612 88.5151 343.642 91.4091H332.869ZM369.665 89.0909V97.2727H347.642V89.0909H369.665ZM352.256 80.7273H363.369V113.023C363.369 113.705 363.475 114.258 363.688 114.682C363.915 115.091 364.241 115.386 364.665 115.568C365.089 115.735 365.597 115.818 366.188 115.818C366.612 115.818 367.059 115.78 367.528 115.705C368.013 115.614 368.377 115.538 368.619 115.477L370.301 123.5C369.771 123.652 369.021 123.841 368.051 124.068C367.097 124.295 365.953 124.439 364.619 124.5C362.013 124.621 359.778 124.318 357.915 123.591C356.066 122.848 354.65 121.697 353.665 120.136C352.695 118.576 352.225 116.614 352.256 114.25V80.7273ZM385.176 124.591C382.949 124.591 380.972 124.22 379.244 123.477C377.532 122.72 376.176 121.583 375.176 120.068C374.191 118.538 373.699 116.621 373.699 114.318C373.699 112.379 374.04 110.742 374.722 109.409C375.403 108.076 376.343 106.992 377.54 106.159C378.737 105.326 380.116 104.697 381.676 104.273C383.237 103.833 384.903 103.538 386.676 103.386C388.661 103.205 390.259 103.015 391.472 102.818C392.684 102.606 393.563 102.311 394.108 101.932C394.669 101.538 394.949 100.985 394.949 100.273V100.159C394.949 98.9924 394.547 98.0909 393.744 97.4545C392.941 96.8182 391.858 96.5 390.494 96.5C389.025 96.5 387.843 96.8182 386.949 97.4545C386.055 98.0909 385.487 98.9697 385.244 100.091L374.994 99.7273C375.297 97.6061 376.078 95.7121 377.335 94.0455C378.608 92.3636 380.35 91.0455 382.562 90.0909C384.79 89.1212 387.464 88.6364 390.585 88.6364C392.813 88.6364 394.866 88.9015 396.744 89.4318C398.623 89.947 400.259 90.7045 401.653 91.7045C403.047 92.6894 404.123 93.9015 404.881 95.3409C405.653 96.7803 406.04 98.4242 406.04 100.273V124H395.585V119.136H395.312C394.691 120.318 393.896 121.318 392.926 122.136C391.972 122.955 390.843 123.568 389.54 123.977C388.252 124.386 386.797 124.591 385.176 124.591ZM388.608 117.318C389.805 117.318 390.881 117.076 391.835 116.591C392.805 116.106 393.578 115.439 394.153 114.591C394.729 113.727 395.017 112.727 395.017 111.591V108.273C394.699 108.439 394.313 108.591 393.858 108.727C393.419 108.864 392.934 108.992 392.403 109.114C391.873 109.235 391.328 109.341 390.767 109.432C390.206 109.523 389.669 109.606 389.153 109.682C388.108 109.848 387.214 110.106 386.472 110.455C385.744 110.803 385.184 111.258 384.79 111.818C384.411 112.364 384.222 113.015 384.222 113.773C384.222 114.924 384.631 115.803 385.449 116.409C386.282 117.015 387.335 117.318 388.608 117.318ZM429.131 124.659C425.449 124.659 422.29 123.902 419.653 122.386C417.032 120.871 415.017 118.765 413.608 116.068C412.199 113.356 411.494 110.22 411.494 106.659C411.494 103.083 412.199 99.947 413.608 97.25C415.032 94.5379 417.055 92.4242 419.676 90.9091C422.313 89.3939 425.456 88.6364 429.108 88.6364C432.335 88.6364 435.146 89.2197 437.54 90.3864C439.949 91.553 441.828 93.2045 443.176 95.3409C444.54 97.4621 445.259 99.9545 445.335 102.818H434.949C434.737 101.03 434.131 99.6288 433.131 98.6136C432.146 97.5985 430.858 97.0909 429.267 97.0909C427.979 97.0909 426.85 97.4545 425.881 98.1818C424.911 98.8939 424.153 99.9545 423.608 101.364C423.078 102.758 422.812 104.485 422.812 106.545C422.812 108.606 423.078 110.348 423.608 111.773C424.153 113.182 424.911 114.25 425.881 114.977C426.85 115.689 427.979 116.045 429.267 116.045C430.297 116.045 431.206 115.826 431.994 115.386C432.797 114.947 433.456 114.303 433.972 113.455C434.487 112.591 434.812 111.545 434.949 110.318H445.335C445.229 113.197 444.509 115.712 443.176 117.864C441.858 120.015 440.002 121.689 437.608 122.886C435.229 124.068 432.403 124.659 429.131 124.659ZM461.045 114.841L461.091 101.591H462.636L472.455 89.0909H485.045L470.455 107H467.523L461.045 114.841ZM451.023 124V77.4545H462.136V124H451.023ZM472.705 124L463.568 109.5L470.886 101.614L485.545 124H472.705Z" fill="white" data-index="3" style="opacity: 1;"></path>
<path d="M185.642 148.091V159H184.321V148.091H185.642ZM189.377 154.078V159H188.12V150.818H189.335V152.097H189.441C189.633 151.681 189.924 151.347 190.315 151.095C190.706 150.839 191.21 150.712 191.828 150.712C192.382 150.712 192.866 150.825 193.282 151.053C193.697 151.276 194.021 151.617 194.251 152.075C194.482 152.53 194.598 153.105 194.598 153.801V159H193.34V153.886C193.34 153.244 193.174 152.743 192.84 152.384C192.506 152.022 192.048 151.841 191.465 151.841C191.064 151.841 190.706 151.928 190.389 152.102C190.077 152.276 189.83 152.53 189.649 152.864C189.468 153.197 189.377 153.602 189.377 154.078ZM198.152 154.078V159H196.895V150.818H198.109V152.097H198.216C198.407 151.681 198.699 151.347 199.089 151.095C199.48 150.839 199.984 150.712 200.602 150.712C201.156 150.712 201.641 150.825 202.056 151.053C202.472 151.276 202.795 151.617 203.026 152.075C203.257 152.53 203.372 153.105 203.372 153.801V159H202.115V153.886C202.115 153.244 201.948 152.743 201.614 152.384C201.28 152.022 200.822 151.841 200.24 151.841C199.839 151.841 199.48 151.928 199.164 152.102C198.851 152.276 198.605 152.53 198.423 152.864C198.242 153.197 198.152 153.602 198.152 154.078ZM208.993 159.17C208.254 159.17 207.606 158.995 207.049 158.643C206.495 158.292 206.062 157.8 205.749 157.168C205.44 156.536 205.286 155.797 205.286 154.952C205.286 154.099 205.44 153.355 205.749 152.72C206.062 152.084 206.495 151.591 207.049 151.239C207.606 150.887 208.254 150.712 208.993 150.712C209.732 150.712 210.378 150.887 210.932 151.239C211.489 151.591 211.923 152.084 212.232 152.72C212.544 153.355 212.7 154.099 212.7 154.952C212.7 155.797 212.544 156.536 212.232 157.168C211.923 157.8 211.489 158.292 210.932 158.643C210.378 158.995 209.732 159.17 208.993 159.17ZM208.993 158.041C209.554 158.041 210.016 157.897 210.378 157.61C210.74 157.322 211.008 156.944 211.182 156.475C211.356 156.006 211.443 155.499 211.443 154.952C211.443 154.405 211.356 153.895 211.182 153.423C211.008 152.951 210.74 152.569 210.378 152.278C210.016 151.987 209.554 151.841 208.993 151.841C208.432 151.841 207.97 151.987 207.608 152.278C207.246 152.569 206.978 152.951 206.804 153.423C206.63 153.895 206.543 154.405 206.543 154.952C206.543 155.499 206.63 156.006 206.804 156.475C206.978 156.944 207.246 157.322 207.608 157.61C207.97 157.897 208.432 158.041 208.993 158.041ZM221.017 150.818L217.991 159H216.713L213.687 150.818H215.051L217.309 157.338H217.395L219.653 150.818H221.017ZM224.835 159.192C224.316 159.192 223.846 159.094 223.423 158.899C223 158.7 222.665 158.414 222.416 158.041C222.168 157.665 222.043 157.21 222.043 156.678C222.043 156.209 222.136 155.829 222.32 155.538C222.505 155.243 222.752 155.012 223.061 154.845C223.37 154.678 223.711 154.554 224.084 154.472C224.46 154.387 224.838 154.32 225.218 154.27C225.715 154.206 226.118 154.158 226.427 154.126C226.74 154.091 226.967 154.032 227.109 153.95C227.255 153.869 227.328 153.727 227.328 153.524V153.482C227.328 152.956 227.184 152.548 226.896 152.256C226.612 151.965 226.18 151.82 225.602 151.82C225.002 151.82 224.531 151.951 224.19 152.214C223.849 152.477 223.609 152.757 223.471 153.055L222.278 152.629C222.491 152.132 222.775 151.745 223.13 151.468C223.489 151.187 223.879 150.992 224.302 150.882C224.728 150.768 225.147 150.712 225.559 150.712C225.822 150.712 226.124 150.744 226.465 150.808C226.809 150.868 227.141 150.994 227.461 151.186C227.784 151.377 228.052 151.667 228.265 152.054C228.478 152.441 228.585 152.96 228.585 153.609V159H227.328V157.892H227.264C227.178 158.07 227.036 158.26 226.837 158.462C226.639 158.664 226.374 158.837 226.044 158.979C225.714 159.121 225.31 159.192 224.835 159.192ZM225.026 158.062C225.524 158.062 225.943 157.965 226.283 157.77C226.628 157.574 226.887 157.322 227.061 157.013C227.239 156.704 227.328 156.379 227.328 156.038V154.888C227.274 154.952 227.157 155.01 226.976 155.064C226.798 155.113 226.592 155.158 226.358 155.197C226.127 155.232 225.902 155.264 225.682 155.293C225.465 155.317 225.289 155.339 225.154 155.357C224.828 155.399 224.522 155.468 224.238 155.564C223.957 155.657 223.73 155.797 223.556 155.985C223.386 156.17 223.301 156.422 223.301 156.741C223.301 157.178 223.462 157.509 223.785 157.732C224.112 157.952 224.526 158.062 225.026 158.062ZM234.437 150.818V151.884H230.197V150.818H234.437ZM231.433 148.858H232.69V156.656C232.69 157.011 232.742 157.278 232.845 157.455C232.951 157.629 233.086 157.746 233.249 157.807C233.416 157.864 233.592 157.892 233.777 157.892C233.915 157.892 234.029 157.885 234.118 157.871C234.206 157.853 234.278 157.839 234.331 157.828L234.586 158.957C234.501 158.989 234.382 159.021 234.23 159.053C234.077 159.089 233.883 159.107 233.649 159.107C233.294 159.107 232.946 159.03 232.605 158.877C232.268 158.725 231.987 158.492 231.763 158.18C231.543 157.867 231.433 157.473 231.433 156.997V148.858ZM236.328 159V150.818H237.585V159H236.328ZM236.968 149.455C236.722 149.455 236.511 149.371 236.334 149.204C236.16 149.037 236.073 148.837 236.073 148.602C236.073 148.368 236.16 148.167 236.334 148C236.511 147.833 236.722 147.75 236.968 147.75C237.213 147.75 237.422 147.833 237.596 148C237.774 148.167 237.862 148.368 237.862 148.602C237.862 148.837 237.774 149.037 237.596 149.204C237.422 149.371 237.213 149.455 236.968 149.455ZM243.212 159.17C242.473 159.17 241.825 158.995 241.267 158.643C240.714 158.292 240.28 157.8 239.968 157.168C239.659 156.536 239.504 155.797 239.504 154.952C239.504 154.099 239.659 153.355 239.968 152.72C240.28 152.084 240.714 151.591 241.267 151.239C241.825 150.887 242.473 150.712 243.212 150.712C243.95 150.712 244.597 150.887 245.151 151.239C245.708 151.591 246.141 152.084 246.45 152.72C246.763 153.355 246.919 154.099 246.919 154.952C246.919 155.797 246.763 156.536 246.45 157.168C246.141 157.8 245.708 158.292 245.151 158.643C244.597 158.995 243.95 159.17 243.212 159.17ZM243.212 158.041C243.773 158.041 244.234 157.897 244.597 157.61C244.959 157.322 245.227 156.944 245.401 156.475C245.575 156.006 245.662 155.499 245.662 154.952C245.662 154.405 245.575 153.895 245.401 153.423C245.227 152.951 244.959 152.569 244.597 152.278C244.234 151.987 243.773 151.841 243.212 151.841C242.651 151.841 242.189 151.987 241.827 152.278C241.465 152.569 241.196 152.951 241.022 153.423C240.848 153.895 240.761 154.405 240.761 154.952C240.761 155.499 240.848 156.006 241.022 156.475C241.196 156.944 241.465 157.322 241.827 157.61C242.189 157.897 242.651 158.041 243.212 158.041ZM250.095 154.078V159H248.838V150.818H250.053V152.097H250.159C250.351 151.681 250.642 151.347 251.033 151.095C251.423 150.839 251.928 150.712 252.545 150.712C253.099 150.712 253.584 150.825 254 151.053C254.415 151.276 254.738 151.617 254.969 152.075C255.2 152.53 255.315 153.105 255.315 153.801V159H254.058V153.886C254.058 153.244 253.891 152.743 253.558 152.384C253.224 152.022 252.766 151.841 252.183 151.841C251.782 151.841 251.423 151.928 251.107 152.102C250.795 152.276 250.548 152.53 250.367 152.864C250.186 153.197 250.095 153.602 250.095 154.078ZM265.389 150.818V151.884H261.149V150.818H265.389ZM262.385 148.858H263.642V156.656C263.642 157.011 263.694 157.278 263.797 157.455C263.903 157.629 264.038 157.746 264.202 157.807C264.369 157.864 264.544 157.892 264.729 157.892C264.867 157.892 264.981 157.885 265.07 157.871C265.159 157.853 265.23 157.839 265.283 157.828L265.539 158.957C265.453 158.989 265.334 159.021 265.182 159.053C265.029 159.089 264.835 159.107 264.601 159.107C264.246 159.107 263.898 159.03 263.557 158.877C263.22 158.725 262.939 158.492 262.715 158.18C262.495 157.867 262.385 157.473 262.385 156.997V148.858ZM268.713 154.078V159H267.456V148.091H268.713V152.097H268.82C269.012 151.674 269.299 151.338 269.683 151.09C270.07 150.838 270.585 150.712 271.228 150.712C271.785 150.712 272.273 150.824 272.692 151.047C273.111 151.267 273.436 151.607 273.667 152.065C273.902 152.519 274.019 153.098 274.019 153.801V159H272.762V153.886C272.762 153.237 272.593 152.734 272.256 152.379C271.922 152.02 271.458 151.841 270.865 151.841C270.453 151.841 270.084 151.928 269.757 152.102C269.434 152.276 269.179 152.53 268.99 152.864C268.806 153.197 268.713 153.602 268.713 154.078ZM278.726 159.192C278.208 159.192 277.737 159.094 277.315 158.899C276.892 158.7 276.556 158.414 276.308 158.041C276.059 157.665 275.935 157.21 275.935 156.678C275.935 156.209 276.027 155.829 276.212 155.538C276.397 155.243 276.643 155.012 276.952 154.845C277.261 154.678 277.602 154.554 277.975 154.472C278.352 154.387 278.73 154.32 279.11 154.27C279.607 154.206 280.01 154.158 280.319 154.126C280.631 154.091 280.859 154.032 281.001 153.95C281.146 153.869 281.219 153.727 281.219 153.524V153.482C281.219 152.956 281.075 152.548 280.788 152.256C280.504 151.965 280.072 151.82 279.493 151.82C278.893 151.82 278.423 151.951 278.082 152.214C277.741 152.477 277.501 152.757 277.363 153.055L276.169 152.629C276.382 152.132 276.667 151.745 277.022 151.468C277.38 151.187 277.771 150.992 278.194 150.882C278.62 150.768 279.039 150.712 279.451 150.712C279.713 150.712 280.015 150.744 280.356 150.808C280.701 150.868 281.033 150.994 281.352 151.186C281.675 151.377 281.944 151.667 282.157 152.054C282.37 152.441 282.476 152.96 282.476 153.609V159H281.219V157.892H281.155C281.07 158.07 280.928 158.26 280.729 158.462C280.53 158.664 280.266 158.837 279.935 158.979C279.605 159.121 279.202 159.192 278.726 159.192ZM278.918 158.062C279.415 158.062 279.834 157.965 280.175 157.77C280.52 157.574 280.779 157.322 280.953 157.013C281.13 156.704 281.219 156.379 281.219 156.038V154.888C281.166 154.952 281.049 155.01 280.868 155.064C280.69 155.113 280.484 155.158 280.25 155.197C280.019 155.232 279.793 155.264 279.573 155.293C279.357 155.317 279.181 155.339 279.046 155.357C278.719 155.399 278.414 155.468 278.13 155.564C277.849 155.657 277.622 155.797 277.448 155.985C277.277 156.17 277.192 156.422 277.192 156.741C277.192 157.178 277.354 157.509 277.677 157.732C278.004 157.952 278.417 158.062 278.918 158.062ZM288.329 150.818V151.884H284.089V150.818H288.329ZM285.325 148.858H286.582V156.656C286.582 157.011 286.633 157.278 286.736 157.455C286.843 157.629 286.978 157.746 287.141 157.807C287.308 157.864 287.484 157.892 287.668 157.892C287.807 157.892 287.921 157.885 288.009 157.871C288.098 157.853 288.169 157.839 288.222 157.828L288.478 158.957C288.393 158.989 288.274 159.021 288.121 159.053C287.968 159.089 287.775 159.107 287.541 159.107C287.185 159.107 286.837 159.03 286.497 158.877C286.159 158.725 285.879 158.492 285.655 158.18C285.435 157.867 285.325 157.473 285.325 156.997V148.858ZM297.763 159.17C296.995 159.17 296.335 158.989 295.781 158.627C295.227 158.265 294.801 157.766 294.503 157.13C294.204 156.495 294.055 155.768 294.055 154.952C294.055 154.121 294.208 153.387 294.513 152.752C294.822 152.113 295.252 151.614 295.802 151.255C296.356 150.893 297.003 150.712 297.741 150.712C298.316 150.712 298.835 150.818 299.297 151.031C299.758 151.244 300.136 151.543 300.431 151.926C300.726 152.31 300.909 152.757 300.98 153.268H299.723C299.627 152.896 299.414 152.565 299.084 152.278C298.757 151.987 298.316 151.841 297.763 151.841C297.272 151.841 296.843 151.969 296.473 152.224C296.108 152.477 295.822 152.833 295.616 153.295C295.413 153.753 295.312 154.291 295.312 154.909C295.312 155.541 295.412 156.092 295.611 156.56C295.813 157.029 296.097 157.393 296.463 157.652C296.832 157.912 297.265 158.041 297.763 158.041C298.089 158.041 298.386 157.984 298.652 157.871C298.918 157.757 299.144 157.594 299.329 157.381C299.513 157.168 299.645 156.912 299.723 156.614H300.98C300.909 157.097 300.733 157.532 300.453 157.919C300.176 158.302 299.808 158.608 299.35 158.835C298.895 159.059 298.366 159.17 297.763 159.17ZM306.141 159.17C305.403 159.17 304.755 158.995 304.197 158.643C303.643 158.292 303.21 157.8 302.897 157.168C302.589 156.536 302.434 155.797 302.434 154.952C302.434 154.099 302.589 153.355 302.897 152.72C303.21 152.084 303.643 151.591 304.197 151.239C304.755 150.887 305.403 150.712 306.141 150.712C306.88 150.712 307.526 150.887 308.08 151.239C308.638 151.591 309.071 152.084 309.38 152.72C309.693 153.355 309.849 154.099 309.849 154.952C309.849 155.797 309.693 156.536 309.38 157.168C309.071 157.8 308.638 158.292 308.08 158.643C307.526 158.995 306.88 159.17 306.141 159.17ZM306.141 158.041C306.703 158.041 307.164 157.897 307.526 157.61C307.889 157.322 308.157 156.944 308.331 156.475C308.505 156.006 308.592 155.499 308.592 154.952C308.592 154.405 308.505 153.895 308.331 153.423C308.157 152.951 307.889 152.569 307.526 152.278C307.164 151.987 306.703 151.841 306.141 151.841C305.58 151.841 305.119 151.987 304.756 152.278C304.394 152.569 304.126 152.951 303.952 153.423C303.778 153.895 303.691 154.405 303.691 154.952C303.691 155.499 303.778 156.006 303.952 156.475C304.126 156.944 304.394 157.322 304.756 157.61C305.119 157.897 305.58 158.041 306.141 158.041ZM313.025 154.078V159H311.768V150.818H312.982V152.097H313.089C313.281 151.681 313.572 151.347 313.962 151.095C314.353 150.839 314.857 150.712 315.475 150.712C316.029 150.712 316.514 150.825 316.929 151.053C317.345 151.276 317.668 151.617 317.899 152.075C318.13 152.53 318.245 153.105 318.245 153.801V159H316.988V153.886C316.988 153.244 316.821 152.743 316.487 152.384C316.153 152.022 315.695 151.841 315.113 151.841C314.712 151.841 314.353 151.928 314.037 152.102C313.724 152.276 313.478 152.53 313.297 152.864C313.115 153.197 313.025 153.602 313.025 154.078ZM321.799 154.078V159H320.542V150.818H321.757V152.097H321.863C322.055 151.681 322.346 151.347 322.737 151.095C323.127 150.839 323.632 150.712 324.25 150.712C324.804 150.712 325.288 150.825 325.704 151.053C326.119 151.276 326.442 151.617 326.673 152.075C326.904 152.53 327.019 153.105 327.019 153.801V159H325.762V153.886C325.762 153.244 325.595 152.743 325.262 152.384C324.928 152.022 324.47 151.841 323.887 151.841C323.486 151.841 323.127 151.928 322.811 152.102C322.499 152.276 322.252 152.53 322.071 152.864C321.89 153.197 321.799 153.602 321.799 154.078ZM332.747 159.17C331.959 159.17 331.279 158.996 330.707 158.648C330.139 158.297 329.7 157.807 329.391 157.178C329.086 156.546 328.933 155.811 328.933 154.973C328.933 154.135 329.086 153.396 329.391 152.757C329.7 152.114 330.13 151.614 330.68 151.255C331.234 150.893 331.881 150.712 332.619 150.712C333.045 150.712 333.466 150.783 333.882 150.925C334.297 151.067 334.675 151.298 335.016 151.617C335.357 151.933 335.629 152.352 335.831 152.874C336.034 153.396 336.135 154.039 336.135 154.803V155.335H329.828V154.249H334.856C334.856 153.787 334.764 153.375 334.579 153.013C334.398 152.651 334.139 152.365 333.802 152.155C333.468 151.946 333.074 151.841 332.619 151.841C332.118 151.841 331.685 151.965 331.319 152.214C330.957 152.459 330.678 152.778 330.483 153.173C330.288 153.567 330.19 153.989 330.19 154.44V155.165C330.19 155.783 330.297 156.306 330.51 156.736C330.726 157.162 331.026 157.487 331.41 157.711C331.794 157.931 332.239 158.041 332.747 158.041C333.077 158.041 333.376 157.995 333.642 157.903C333.912 157.807 334.144 157.665 334.34 157.477C334.535 157.285 334.686 157.047 334.792 156.763L336.007 157.104C335.879 157.516 335.664 157.878 335.362 158.19C335.061 158.499 334.688 158.741 334.244 158.915C333.8 159.085 333.301 159.17 332.747 159.17ZM341.371 159.17C340.604 159.17 339.943 158.989 339.389 158.627C338.835 158.265 338.409 157.766 338.111 157.13C337.813 156.495 337.664 155.768 337.664 154.952C337.664 154.121 337.816 153.387 338.122 152.752C338.431 152.113 338.86 151.614 339.411 151.255C339.965 150.893 340.611 150.712 341.35 150.712C341.925 150.712 342.443 150.818 342.905 151.031C343.367 151.244 343.745 151.543 344.04 151.926C344.334 152.31 344.517 152.757 344.588 153.268H343.331C343.235 152.896 343.022 152.565 342.692 152.278C342.365 151.987 341.925 151.841 341.371 151.841C340.881 151.841 340.451 151.969 340.082 152.224C339.716 152.477 339.43 152.833 339.224 153.295C339.022 153.753 338.921 154.291 338.921 154.909C338.921 155.541 339.02 156.092 339.219 156.56C339.421 157.029 339.705 157.393 340.071 157.652C340.441 157.912 340.874 158.041 341.371 158.041C341.698 158.041 341.994 157.984 342.26 157.871C342.527 157.757 342.752 157.594 342.937 157.381C343.122 157.168 343.253 156.912 343.331 156.614H344.588C344.517 157.097 344.341 157.532 344.061 157.919C343.784 158.302 343.416 158.608 342.958 158.835C342.504 159.059 341.975 159.17 341.371 159.17ZM349.984 150.818V151.884H345.744V150.818H349.984ZM346.98 148.858H348.237V156.656C348.237 157.011 348.289 157.278 348.392 157.455C348.498 157.629 348.633 157.746 348.796 157.807C348.963 157.864 349.139 157.892 349.324 157.892C349.462 157.892 349.576 157.885 349.665 157.871C349.753 157.853 349.824 157.839 349.878 157.828L350.133 158.957C350.048 158.989 349.929 159.021 349.776 159.053C349.624 159.089 349.43 159.107 349.196 159.107C348.841 159.107 348.493 159.03 348.152 158.877C347.814 158.725 347.534 158.492 347.31 158.18C347.09 157.867 346.98 157.473 346.98 156.997V148.858ZM357.524 152.651L356.395 152.97C356.324 152.782 356.219 152.599 356.081 152.422C355.946 152.24 355.761 152.091 355.527 151.974C355.292 151.857 354.992 151.798 354.626 151.798C354.126 151.798 353.708 151.914 353.375 152.145C353.044 152.372 352.879 152.661 352.879 153.013C352.879 153.325 352.993 153.572 353.22 153.753C353.447 153.934 353.803 154.085 354.286 154.206L355.5 154.504C356.232 154.682 356.777 154.953 357.135 155.319C357.494 155.681 357.673 156.148 357.673 156.72C357.673 157.189 357.538 157.608 357.268 157.977C357.002 158.347 356.629 158.638 356.15 158.851C355.67 159.064 355.113 159.17 354.477 159.17C353.643 159.17 352.952 158.989 352.405 158.627C351.858 158.265 351.512 157.736 351.366 157.04L352.56 156.741C352.673 157.182 352.888 157.512 353.204 157.732C353.524 157.952 353.941 158.062 354.456 158.062C355.042 158.062 355.507 157.938 355.852 157.69C356.2 157.437 356.374 157.136 356.374 156.784C356.374 156.5 356.274 156.262 356.075 156.07C355.876 155.875 355.571 155.729 355.159 155.634L353.795 155.314C353.046 155.136 352.496 154.861 352.144 154.488C351.796 154.112 351.622 153.641 351.622 153.077C351.622 152.615 351.752 152.207 352.011 151.852C352.274 151.496 352.631 151.218 353.082 151.015C353.536 150.813 354.051 150.712 354.626 150.712C355.436 150.712 356.072 150.889 356.533 151.244C356.999 151.599 357.329 152.068 357.524 152.651ZM367.343 150.818V151.884H363.103V150.818H367.343ZM364.338 148.858H365.595V156.656C365.595 157.011 365.647 157.278 365.75 157.455C365.856 157.629 365.991 157.746 366.155 157.807C366.322 157.864 366.497 157.892 366.682 157.892C366.821 157.892 366.934 157.885 367.023 157.871C367.112 157.853 367.183 157.839 367.236 157.828L367.492 158.957C367.407 158.989 367.288 159.021 367.135 159.053C366.982 159.089 366.789 159.107 366.554 159.107C366.199 159.107 365.851 159.03 365.51 158.877C365.173 158.725 364.892 158.492 364.669 158.18C364.448 157.867 364.338 157.473 364.338 156.997V148.858ZM370.666 154.078V159H369.409V148.091H370.666V152.097H370.773C370.965 151.674 371.252 151.338 371.636 151.09C372.023 150.838 372.538 150.712 373.181 150.712C373.738 150.712 374.226 150.824 374.646 151.047C375.065 151.267 375.389 151.607 375.62 152.065C375.855 152.519 375.972 153.098 375.972 153.801V159H374.715V153.886C374.715 153.237 374.546 152.734 374.209 152.379C373.875 152.02 373.411 151.841 372.818 151.841C372.407 151.841 372.037 151.928 371.71 152.102C371.387 152.276 371.132 152.53 370.943 152.864C370.759 153.197 370.666 153.602 370.666 154.078ZM381.702 159.17C380.914 159.17 380.234 158.996 379.662 158.648C379.094 158.297 378.655 157.807 378.346 157.178C378.041 156.546 377.888 155.811 377.888 154.973C377.888 154.135 378.041 153.396 378.346 152.757C378.655 152.114 379.085 151.614 379.635 151.255C380.189 150.893 380.836 150.712 381.574 150.712C382 150.712 382.421 150.783 382.837 150.925C383.252 151.067 383.63 151.298 383.971 151.617C384.312 151.933 384.584 152.352 384.786 152.874C384.989 153.396 385.09 154.039 385.09 154.803V155.335H378.783V154.249H383.811C383.811 153.787 383.719 153.375 383.534 153.013C383.353 152.651 383.094 152.365 382.757 152.155C382.423 151.946 382.029 151.841 381.574 151.841C381.074 151.841 380.64 151.965 380.275 152.214C379.912 152.459 379.634 152.778 379.438 153.173C379.243 153.567 379.145 153.989 379.145 154.44V155.165C379.145 155.783 379.252 156.306 379.465 156.736C379.681 157.162 379.982 157.487 380.365 157.711C380.749 157.931 381.194 158.041 381.702 158.041C382.032 158.041 382.331 157.995 382.597 157.903C382.867 157.807 383.099 157.665 383.295 157.477C383.49 157.285 383.641 157.047 383.748 156.763L384.962 157.104C384.834 157.516 384.619 157.878 384.317 158.19C384.016 158.499 383.643 158.741 383.199 158.915C382.755 159.085 382.256 159.17 381.702 159.17ZM394.864 150.818V151.884H390.454V150.818H394.864ZM391.775 159V149.689C391.775 149.22 391.885 148.83 392.105 148.517C392.325 148.205 392.611 147.97 392.963 147.814C393.314 147.658 393.685 147.58 394.076 147.58C394.385 147.58 394.637 147.604 394.832 147.654C395.028 147.704 395.173 147.75 395.269 147.793L394.907 148.879C394.843 148.858 394.754 148.831 394.641 148.799C394.531 148.767 394.385 148.751 394.204 148.751C393.788 148.751 393.488 148.856 393.304 149.066C393.123 149.275 393.032 149.582 393.032 149.987V159H391.775ZM401.782 155.655V150.818H403.04V159H401.782V157.615H401.697C401.505 158.031 401.207 158.384 400.802 158.675C400.397 158.963 399.886 159.107 399.268 159.107C398.757 159.107 398.302 158.995 397.905 158.771C397.507 158.544 397.194 158.203 396.967 157.748C396.74 157.29 396.626 156.713 396.626 156.017V150.818H397.883V155.932C397.883 156.528 398.05 157.004 398.384 157.359C398.721 157.714 399.151 157.892 399.673 157.892C399.986 157.892 400.303 157.812 400.627 157.652C400.953 157.493 401.227 157.248 401.447 156.917C401.671 156.587 401.782 156.166 401.782 155.655ZM408.9 150.818V151.884H404.66V150.818H408.9ZM405.896 148.858H407.153V156.656C407.153 157.011 407.205 157.278 407.308 157.455C407.414 157.629 407.549 157.746 407.712 157.807C407.879 157.864 408.055 157.892 408.24 157.892C408.378 157.892 408.492 157.885 408.581 157.871C408.669 157.853 408.74 157.839 408.794 157.828L409.049 158.957C408.964 158.989 408.845 159.021 408.692 159.053C408.54 159.089 408.346 159.107 408.112 159.107C407.757 159.107 407.409 159.03 407.068 158.877C406.73 158.725 406.45 158.492 406.226 158.18C406.006 157.867 405.896 157.473 405.896 156.997V148.858ZM415.947 155.655V150.818H417.205V159H415.947V157.615H415.862C415.67 158.031 415.372 158.384 414.967 158.675C414.563 158.963 414.051 159.107 413.433 159.107C412.922 159.107 412.467 158.995 412.07 158.771C411.672 158.544 411.359 158.203 411.132 157.748C410.905 157.29 410.791 156.713 410.791 156.017V150.818H412.048V155.932C412.048 156.528 412.215 157.004 412.549 157.359C412.886 157.714 413.316 157.892 413.838 157.892C414.151 157.892 414.468 157.812 414.792 157.652C415.118 157.493 415.392 157.248 415.612 156.917C415.836 156.587 415.947 156.166 415.947 155.655ZM419.507 159V150.818H420.722V152.054H420.807C420.956 151.649 421.226 151.321 421.616 151.069C422.007 150.816 422.447 150.69 422.937 150.69C423.03 150.69 423.145 150.692 423.284 150.696C423.422 150.699 423.527 150.705 423.598 150.712V151.99C423.555 151.979 423.458 151.963 423.305 151.942C423.156 151.917 422.998 151.905 422.831 151.905C422.433 151.905 422.078 151.988 421.766 152.155C421.457 152.319 421.212 152.546 421.03 152.837C420.853 153.125 420.764 153.453 420.764 153.822V159H419.507ZM428.269 159.17C427.481 159.17 426.801 158.996 426.229 158.648C425.661 158.297 425.223 157.807 424.914 157.178C424.608 156.546 424.456 155.811 424.456 154.973C424.456 154.135 424.608 153.396 424.914 152.757C425.223 152.114 425.652 151.614 426.203 151.255C426.757 150.893 427.403 150.712 428.142 150.712C428.568 150.712 428.989 150.783 429.404 150.925C429.82 151.067 430.198 151.298 430.539 151.617C430.88 151.933 431.151 152.352 431.354 152.874C431.556 153.396 431.657 154.039 431.657 154.803V155.335H425.35V154.249H430.379C430.379 153.787 430.286 153.375 430.102 153.013C429.921 152.651 429.661 152.365 429.324 152.155C428.99 151.946 428.596 151.841 428.142 151.841C427.641 151.841 427.208 151.965 426.842 152.214C426.48 152.459 426.201 152.778 426.006 153.173C425.81 153.567 425.713 153.989 425.713 154.44V155.165C425.713 155.783 425.819 156.306 426.032 156.736C426.249 157.162 426.549 157.487 426.932 157.711C427.316 157.931 427.762 158.041 428.269 158.041C428.6 158.041 428.898 157.995 429.164 157.903C429.434 157.807 429.667 157.665 429.862 157.477C430.057 157.285 430.208 157.047 430.315 156.763L431.529 157.104C431.402 157.516 431.187 157.878 430.885 158.19C430.583 158.499 430.21 158.741 429.766 158.915C429.322 159.085 428.823 159.17 428.269 159.17Z" fill="white" data-index="4"></path>
</svg>